PathFileType	4	(X/Y/Z)	path1_11_0-607.trc
DataRate	CameraRate	NumFrames	NumMarkers	Units	OrigDataRate	OrigDataStartFrame	OrigNumFrames
30	30	6	22	m	30	151	607
Frame#	Time	Hip			RHip			RKnee			RAnkle			RBigToe			RSmallToe			RHeel			LHip			LKnee			LAnkle			LBigToe			LSmallToe			LHeel			Neck			Head			Nose			RShoulder			RElbow			RWrist			LShoulder			LElbow			LWrist		
		X1	Y1	Z1	X2	Y2	Z2	X3	Y3	Z3	X4	Y4	Z4	X5	Y5	Z5	X6	Y6	Z6	X7	Y7	Z7	X8	Y8	Z8	X9	Y9	Z9	X10	Y10	Z10	X11	Y11	Z11	X12	Y12	Z12	X13	Y13	Z13	X14	Y14	Z14	X15	Y15	Z15	X16	Y16	Z16	X17	Y17	Z17	X18	Y18	Z18	X19	Y19	Z19	X20	Y20	Z20	X21	Y21	Z21	X22	Y22	Z22
152	5.066666666666666	2.758373018482561	0.8369118349091069	0.627936113720508	2.763325261120148	0.8038308945840948	0.5468959789929583	2.745386187562736	0.46253652529931555	0.5448600999567518	2.818048532962085	0.0993741846391932	0.5806934605753741	2.6169739071482554	0.025423749399963936	0.5601260117720883	2.6558901858182162	0.01984035961001509	0.5006203153012992	2.86294032525465	0.03410905985647779	0.5617349768199013	2.7528414850069867	0.8014815382072512	0.7102888352837535	2.7702832346459356	0.4395854757191618	0.6849076913748823	2.7951702828249703	0.11338725757605032	0.6848726249686607	2.6400848514594535	0.016398987163052242	0.6834042731156146	2.665933639727675	0.031308630098467	0.7475193473766988	2.862161438397871	0.03888435270301674	0.7015495844365119	2.732220293258631	1.4677513111520917	0.6428523707680613	2.656292956575837	1.6890844274701684	0.6217520602064769	2.5996368052119085	1.6060339473099072	0.6110474820367018	2.781536574887384	1.3604547891898844	0.4776922757676194	2.7849812795601214	1.0739575601971945	0.4151991736962025	2.7748163521641147	0.841901299491328	0.423385481223988	2.716209426626204	1.3445939530937892	0.805721304158868	2.808607709290634	1.0484581044986752	0.7899461354354171	2.8015796197814944	0.8262248865654029	0.8062153556436185
153	5.1	2.758442167259083	0.8370454256540156	0.6279248660830685	2.76304995628949	0.8041449001959607	0.5469937681485433	2.743523369354002	0.46324403306372075	0.5429401738201082	2.8178857772472323	0.09961860268369102	0.5806975663536799	2.6165195792487648	0.02522152782331648	0.5601589734266157	2.655660945351296	0.01960541135886469	0.5009531208944463	2.863182862744288	0.03409755399043512	0.5616047786767953	2.753194484998149	0.8014345107013265	0.7098900771813482	2.7714426066132942	0.4386217939957699	0.6839786589043151	2.7950148896768465	0.1137960329963722	0.6848513432614999	2.6392792379525907	0.01740726940185716	0.6832820794257652	2.665711541174729	0.03158341989201536	0.7470619457659113	2.8620794440067834	0.03926052426531424	0.7013393880922776	2.7322899989139526	1.4677421857177637	0.6428378737323717	2.6590104391039397	1.6901631596174704	0.6245828064891614	2.5995045843790665	1.6060278585838852	0.6096270095950501	2.7814040948988983	1.3601438436619757	0.47696162101663625	2.7852025199520076	1.0738114086007433	0.41504057058451965	2.775110874053835	0.84169955911071	0.42336054337478696	2.7164010254920754	1.344525094798738	0.8057657346696799	2.808750816833065	1.049298762718591	0.7909549933116792	2.801726285055234	0.8262143564662153	0.8063250754968859
154	5.133333333333334	2.758676536290163	0.8370306685833061	0.6278699377621528	2.7631095499030383	0.8040093694446274	0.5470112357208865	2.7426591256863144	0.4636057198108603	0.5419465294275724	2.8173709893616983	0.10046696784135842	0.5790450259429811	2.6162527021643145	0.024936017693413744	0.5601951557217068	2.655681612740689	0.019303385722032808	0.5011878262742485	2.8631750951496056	0.03441673524869	0.5616090161606173	2.753617465054397	0.8008490875033805	0.7094745128390614	2.7722956608316007	0.43773025718606023	0.6834620093290303	2.7952029445921456	0.11391039564086172	0.6850031493430262	2.638859448321157	0.018274889878149774	0.6832733076014759	2.6657585308610727	0.03122449168402109	0.7462757886865983	2.8622008976459226	0.03965642417408752	0.701121635211221	2.7324273882423653	1.4677916096529666	0.6427020690273274	2.664050498836803	1.6926543291633314	0.6275935119624109	2.5994748920119215	1.6059285595937256	0.6078639884057514	2.781450159772861	1.3597643114306313	0.47625425872218613	2.7854236722021684	1.0735930028879686	0.41498607120520004	2.775410735076472	0.8417140022962689	0.4232651125299435	2.716910268126393	1.3444798394165942	0.8052970279964334	2.808585268243966	1.050785936851164	0.7930969273697587	2.801998511716229	0.8268011085804655	0.8067437691459393
155	5.166666666666667	2.7589005752513605	0.8368959732260923	0.6277800171628073	2.763371744870646	0.8034548445483474	0.5468776705138942	2.7427636639971347	0.4636295678249785	0.5419489568847186	2.8167784739024166	0.10149764063501361	0.576751300321975	2.6163028017610244	0.02454930284799447	0.5601971899655341	2.6559698200179964	0.01894335789804467	0.501232274029131	2.8627950819419214	0.03488030251413949	0.56208926578694	2.754112872082627	0.7998136847035717	0.7090113311274968	2.7728904464098907	0.4369938213492336	0.6833621302806097	2.7962341437073244	0.11346644977873876	0.6856866845529885	2.6390773427584007	0.018676477769621957	0.6834061935788678	2.666101614070676	0.030125185106241903	0.7451300721751851	2.8625161494050824	0.039935299997605145	0.7008559083769479	2.7326228110913107	1.467922599931963	0.642369898376841	2.670079754547948	1.6956659907220206	0.6302716040649811	2.5995944354659337	1.6056621661587518	0.6061745792355646	2.781707863593495	1.3592733894311086	0.4756992751728554	2.785634023669891	1.0733538641982423	0.4150644690971306	2.775631385624649	0.8419916642160489	0.4231312742234234	2.71802853439696	1.3445104225481288	0.8039824822724188	2.8079776062094615	1.0529367177885582	0.7964412823048441	2.802053276903207	0.8278609004676455	0.8074710879502085
156	5.2	2.75898330373533	0.8366752772223768	0.6276611095814092	2.763618375603923	0.8026613334738909	0.5465535491029546	2.74388427902798	0.46328723470476485	0.543140933257723	2.8164486197362395	0.10224695399762215	0.5753492733414219	2.616720689024721	0.024031776259836306	0.5601117161475584	2.6564139608132855	0.018563803791147065	0.5010566177194488	2.862195315522089	0.035315930705450194	0.5630107205901178	2.754662589853177	0.7986433465213818	0.7085061268136793	2.773398511876797	0.4365172676453971	0.6836207605389405	2.7987273424343995	0.11216506430683679	0.6875308095128279	2.640056828202496	0.018388724403498043	0.683632037705494	2.6667727158340715	0.028303564919874073	0.7437182083012678	2.8629545410354207	0.04003736143094847	0.7004899666925846	2.7329182038301316	1.4681042790508236	0.641863826450025	2.6756299451162944	1.6983110860203752	0.6320574181719717	2.599830646242293	1.6052189714147729	0.6047670517429106	2.7821337797666583	1.358692441357892	0.4754435523565228	2.78586648151509	1.0731549214344618	0.4152869720343278	2.775719641111691	0.8425064209865595	0.4230093415891507	2.7201130971092486	1.3446454888088246	0.8015731835605988	2.8070325607410034	1.0553823329607241	0.8003816218332721	2.8018526386586085	0.8290342788134485	0.8082814859547635
157	5.233333333333333	2.7589828845170343	0.8364163913561528	0.6275248333499837	2.7637529420280984	0.8019528999210888	0.5461327009609436	2.7461455829664905	0.46250658342239054	0.5458023793946427	2.816484585122644	0.10259351287618793	0.5755503462094698	2.6174257954753855	0.02344016804322068	0.5599482936679094	2.656849248609094	0.018240043341044825	0.5007253475168398	2.8615294108806797	0.035748501355938316	0.5640262926121874	2.7551851268865697	0.797840625405828	0.7081227537362927	2.773917072859428	0.4365092860362965	0.6842814815045771	2.802374711303499	0.11021820052176708	0.6904806033042263	2.6416259272518254	0.01750514900467281	0.6839181753695063	2.6678574413336262	0.026117141547051723	0.7425499275427093	2.863377232577435	0.03998428207607408	0.7000598831004108	2.733363761255494	1.4682545674209764	0.6413044132517071	2.679304501860856	1.6999184625370944	0.6325334614808471	2.6001320870106785	1.6046684492168242	0.6036658795934418	2.782648123400086	1.3581459949533936	0.4755583886841032	2.786180296937636	1.0730014587690477	0.41563220253929745	2.775700666469594	0.8431001269279382	0.42294231885890887	2.7233800799639942	1.344891690823447	0.7981114266665356	2.8061116676763285	1.057199702811872	0.8034172595797251	2.801483507254207	0.8299613014454853	0.8089884822032057
